<?xml version="1.0" encoding="iso-8859-1"?>
<!-- Generator: Adobe Illustrator 18.0.0, SVG Export Plug-In . SVG Version: 6.00 Build 0)  -->
<!DOCTYPE svg PUBLIC "-//W3C//DTD SVG 1.1//EN" "http://www.w3.org/Graphics/SVG/1.1/DTD/svg11.dtd">
<svg version="1.1" id="Capa_1" xmlns="http://www.w3.org/2000/svg" xmlns:xlink="http://www.w3.org/1999/xlink" x="0px" y="0px"
	 viewBox="0 0 184.92 184.92" style="enable-background:new 0 0 184.92 184.92;" xml:space="preserve">
<g>
	<g>
		<rect x="0" y="4.281" style="fill:#a7f3d0;" width="184.92" height="176.358"/>
	</g>
	<g>
		<g>
			<g>
				<g>
					<path style="fill:#2F5873;" d="M34.336,76.388c-0.851,0-1.696-0.36-2.29-1.06c-1.071-1.264-0.916-3.157,0.348-4.229
						l13.376-11.339c2.998-2.542,7.349-2.542,10.346,0l10.144,8.598c0.749,0.635,1.836,0.634,2.586,0l10.141-8.597
						c3-2.542,7.351-2.541,10.346,0l10.14,8.597c0.75,0.635,1.838,0.636,2.587,0l10.14-8.597c2.997-2.542,7.348-2.542,10.347,0
						l10.139,8.597c0.75,0.635,1.838,0.634,2.588,0l13.37-11.337c1.265-1.071,3.158-0.916,4.229,0.348
						c1.072,1.264,0.916,3.157-0.347,4.229l-13.371,11.338c-2.998,2.541-7.35,2.541-10.348,0l-10.139-8.597
						c-0.751-0.636-1.838-0.635-2.587,0l-10.139,8.597c-2.998,2.543-7.35,2.542-10.348,0l-10.139-8.597
						c-0.75-0.635-1.837-0.635-2.587,0.001l-10.141,8.597c-2.997,2.542-7.348,2.542-10.346,0.001l-10.143-8.598
						c-0.75-0.637-1.838-0.636-2.587,0L36.275,75.677C35.711,76.155,35.022,76.388,34.336,76.388z"/>
				</g>
				<g>
					<path style="fill:#2F5873;" d="M34.336,93.796c-0.851,0-1.696-0.36-2.29-1.06c-1.071-1.264-0.916-3.157,0.348-4.229
						l13.376-11.339c2.998-2.541,7.349-2.542,10.346,0.001l10.144,8.598c0.749,0.635,1.836,0.634,2.586,0l10.141-8.597
						c3-2.542,7.351-2.54,10.346,0l10.14,8.597c0.75,0.635,1.838,0.634,2.588,0l10.139-8.597c2.997-2.542,7.348-2.541,10.347,0
						l10.139,8.597c0.75,0.635,1.838,0.635,2.588,0l13.37-11.337c1.265-1.071,3.158-0.915,4.229,0.348
						c1.072,1.264,0.916,3.157-0.347,4.229l-13.371,11.338c-2.999,2.543-7.351,2.542-10.348,0l-10.139-8.597
						c-0.751-0.636-1.838-0.635-2.587,0l-10.139,8.597c-2.999,2.542-7.35,2.542-10.348,0.001l-10.139-8.598
						c-0.75-0.635-1.837-0.635-2.587,0l-10.141,8.597c-2.997,2.542-7.348,2.542-10.346,0.001l-10.143-8.598
						c-0.75-0.637-1.838-0.636-2.587,0L36.275,93.084C35.711,93.562,35.022,93.796,34.336,93.796z"/>
				</g>
				<g>
					<path style="fill:#2F5873;" d="M34.336,111.204c-0.851,0-1.696-0.36-2.29-1.06c-1.071-1.264-0.916-3.157,0.348-4.229
						l13.376-11.339c2.998-2.542,7.349-2.541,10.346,0.001l10.144,8.598c0.749,0.636,1.836,0.635,2.586,0l10.141-8.597
						c3-2.542,7.351-2.541,10.346,0l10.14,8.597c0.75,0.635,1.838,0.634,2.588-0.001l10.139-8.597
						c2.997-2.542,7.348-2.542,10.347-0.001l10.139,8.597c0.75,0.635,1.838,0.636,2.587,0l13.371-11.338
						c1.265-1.071,3.158-0.915,4.229,0.348c1.072,1.264,0.916,3.157-0.347,4.229l-13.371,11.338c-2.997,2.542-7.349,2.542-10.348,0
						l-10.139-8.597c-0.751-0.636-1.838-0.635-2.587,0l-10.139,8.597c-2.999,2.542-7.35,2.542-10.348,0.001l-10.139-8.598
						c-0.75-0.635-1.837-0.635-2.587,0.001l-10.141,8.597c-2.997,2.542-7.348,2.542-10.346,0.001l-10.143-8.598
						c-0.75-0.637-1.838-0.636-2.587,0l-13.376,11.339C35.711,110.97,35.022,111.204,34.336,111.204z"/>
				</g>
				<g>
					<path style="fill:#2F5873;" d="M34.336,128.611c-0.851,0-1.696-0.36-2.29-1.06c-1.071-1.264-0.916-3.157,0.348-4.229
						l13.376-11.339c2.998-2.542,7.349-2.542,10.346,0l10.144,8.598c0.749,0.636,1.837,0.635,2.586,0l10.141-8.597
						c2.997-2.542,7.349-2.542,10.346,0l10.14,8.597c0.75,0.635,1.838,0.634,2.588-0.001l10.139-8.596
						c2.998-2.542,7.35-2.542,10.347,0l10.139,8.596c0.75,0.634,1.838,0.636,2.587,0l13.371-11.338
						c1.265-1.07,3.158-0.915,4.229,0.348c1.072,1.264,0.916,3.157-0.347,4.229l-13.371,11.338c-2.997,2.542-7.349,2.543-10.348,0
						l-10.139-8.596c-0.75-0.635-1.837-0.636-2.586,0l-10.14,8.597c-2.999,2.542-7.35,2.542-10.348,0l-10.139-8.598
						c-0.75-0.635-1.837-0.635-2.587,0.001l-10.141,8.597c-2.997,2.541-7.349,2.542-10.346,0l-10.143-8.598
						c-0.75-0.637-1.838-0.636-2.587,0L36.275,127.9C35.711,128.378,35.022,128.611,34.336,128.611z"/>
				</g>
			</g>
			<g>
				<path style="fill:#244459;" d="M95.594,72.935c2.998,2.542,7.35,2.543,10.348,0l10.139-8.597c0.749-0.635,1.836-0.636,2.587,0
					l10.139,8.597c2.998,2.541,7.35,2.541,10.348,0l13.371-11.338c1.263-1.072,1.419-2.965,0.347-4.229
					c-1.071-1.263-2.964-1.418-4.229-0.348l-13.37,11.337c-0.75,0.635-1.838,0.635-2.588,0l-10.139-8.597
					c-2.998-2.542-7.35-2.541-10.347,0l-10.14,8.597c-0.749,0.636-1.837,0.635-2.587,0l-7.014-5.947v7.866L95.594,72.935z"/>
				<path style="fill:#244459;" d="M95.594,90.343c2.998,2.541,7.349,2.541,10.348-0.001l10.139-8.597
					c0.749-0.635,1.836-0.636,2.587,0l10.139,8.597c2.997,2.542,7.349,2.543,10.348,0l13.371-11.338
					c1.263-1.072,1.419-2.965,0.347-4.229c-1.071-1.263-2.964-1.418-4.229-0.348l-13.37,11.337c-0.75,0.636-1.838,0.635-2.588,0
					l-10.139-8.597c-2.998-2.541-7.35-2.542-10.347,0l-10.139,8.597c-0.75,0.635-1.838,0.635-2.588,0L92.46,79.82v7.866
					L95.594,90.343z"/>
				<path style="fill:#244459;" d="M95.594,107.751c2.998,2.541,7.349,2.541,10.348-0.001l10.139-8.597
					c0.749-0.635,1.836-0.636,2.587,0l10.139,8.597c2.999,2.542,7.352,2.542,10.348,0l13.371-11.338
					c1.263-1.072,1.419-2.965,0.347-4.229c-1.071-1.263-2.964-1.419-4.229-0.348l-13.371,11.338c-0.749,0.636-1.837,0.635-2.587,0
					l-10.139-8.597c-2.998-2.541-7.35-2.541-10.347,0.001l-10.139,8.597c-0.75,0.635-1.838,0.635-2.588,0.001l-7.014-5.947v7.866
					L95.594,107.751z"/>
				<path style="fill:#244459;" d="M95.594,125.159c2.998,2.541,7.349,2.541,10.348,0l10.14-8.597c0.75-0.636,1.837-0.635,2.586,0
					l10.139,8.596c2.999,2.543,7.352,2.542,10.348,0l13.371-11.338c1.263-1.072,1.419-2.965,0.347-4.229
					c-1.071-1.263-2.964-1.418-4.229-0.348l-13.371,11.338c-0.749,0.636-1.837,0.634-2.587,0l-10.139-8.596
					c-2.998-2.542-7.35-2.542-10.347,0l-10.139,8.596c-0.75,0.635-1.838,0.635-2.588,0.001l-7.014-5.947v7.866L95.594,125.159z"/>
			</g>
		</g>
	</g>
</g>
<g>
</g>
<g>
</g>
<g>
</g>
<g>
</g>
<g>
</g>
<g>
</g>
<g>
</g>
<g>
</g>
<g>
</g>
<g>
</g>
<g>
</g>
<g>
</g>
<g>
</g>
<g>
</g>
<g>
</g>
</svg>
